<svg enable-background="new 0 0 14 13.2" viewBox="0 0 14 13.2" xmlns="http://www.w3.org/2000/svg"><path d="m11 13.1c-.3 0-.5-.1-.7-.3s-.3-.4-.3-.7.1-.5.3-.7c.4-.4 1-.4 1.4 0 .2.2.3.4.3.7s-.1.5-.3.7-.4.3-.7.3zm-8.5 0c-.3 0-.5-.1-.7-.3s-.3-.4-.3-.7.1-.5.3-.7c.4-.4 1-.4 1.4 0 .2.2.3.4.3.7s-.1.5-.3.7-.4.3-.7.3zm10-2.5h-10.5c-.3 0-.5-.2-.5-.5 0-.7.3-1.3.7-1.8.4-.3.8-.5 1.2-.6l-1.4-5.4-.3-1c0-.1-.1-.2-.2-.2h-1c-.2 0-.5-.2-.5-.5s.2-.5.5-.5h.9c.6 0 1.1.4 1.3.9l.2.6c3.6-.1 7.2.4 10.7 1.3.1 0 .2.1.3.2s.1.3 0 .4c-.5 1.6-1.2 3.3-2 4.8-.1.2-.3.3-.4.3h-7.5c-.4 0-.7.2-1 .5-.2.1-.3.3-.4.5h9.9c.3 0 .5.2.5.5s-.2.5-.5.5zm-8.1-3h6.8c.6-1.3 1.1-2.6 1.6-3.9-3.2-.8-6.4-1.1-9.7-1.1z"/></svg>