<svg viewBox="0 0 17.1 19.9" xmlns="http://www.w3.org/2000/svg"><path d="m12.26 20h-7.32a3 3 0 0 1 -2-.78 3 3 0 0 1 -.94-1.99l-.92-12.06h-.08a.83.83 0 0 1 -1-.68.84.84 0 0 1 .68-1l1-.15c.84-.13 1.68-.23 2.53-.31v-.03a2.85 2.85 0 0 1 2.79-2.92h3.15a2.86 2.86 0 0 1 2.85 2.92v.09c.84.08 1.69.18 2.52.31l1 .16a.84.84 0 1 1 -.28 1.65h-.05l-.99 12.02a2.95 2.95 0 0 1 -2.94 2.77zm-9.51-15 .94 12.1a1.2 1.2 0 0 0 .4.83 1.24 1.24 0 0 0 .85.34h7.32a1.26 1.26 0 0 0 .86-.34 1.28 1.28 0 0 0 .4-.83l.94-12.18c-.8-.11-1.61-.19-2.41-.25a43.64 43.64 0 0 0 -6.86 0c-.83.06-1.64.14-2.44.25zm5.85-3.27c-.51 0-1 0-1.52 0a1.19 1.19 0 0 0 -1.14 1.2 47.21 47.21 0 0 1 5.32 0 1.18 1.18 0 0 0 -1.13-1.17q-.77-.03-1.53-.03zm2.24 14.72a.84.84 0 0 1 -.81-.88l.32-8.4a.84.84 0 1 1 1.65.06l-.32 8.41a.85.85 0 0 1 -.84.81zm-4.47 0a.84.84 0 0 1 -.84-.81l-.33-8.41a.85.85 0 0 1 .8-.87.82.82 0 0 1 .87.81l.33 8.4a.85.85 0 0 1 -.81.88z" transform="translate(-.05 -.05)"/></svg>