<svg enable-background="new 0 0 19 20" viewBox="0 0 19 20" xmlns="http://www.w3.org/2000/svg"><path d="m9.5 19.8h-6c-.8 0-1.6-.3-2.1-.9-.6-.6-.9-1.3-.9-2.1v-13.6c0-.8.3-1.6.9-2.1.6-.6 1.3-.9 2.1-.9h6c.8 0 1.6.3 2.1.9.6.6.9 1.3.9 2.1v3.8c0 .4-.3.8-.8.8s-.7-.4-.7-.8v-3.8c0-.4-.2-.8-.4-1.1-.3-.3-.7-.4-1.1-.4h-6c-.4 0-.8.2-1.1.4-.2.4-.4.8-.4 1.1v13.5c0 .4.2.8.4 1.1.3.3.7.4 1.1.4h6c.4 0 .8-.2 1.1-.4s.4-.7.4-1.1v-3.7c0-.4.3-.8.8-.8s.8.3.8.8v3.8c0 .8-.3 1.6-.9 2.1s-1.4.9-2.2.9zm-1.5-6c-.2 0-.4-.1-.5-.2l-3-3c-.1-.1-.1-.2-.2-.2 0-.1-.1-.2-.1-.3s0-.2.1-.3c0-.1.1-.2.2-.2l3-3c.3-.3.8-.3 1.1 0s.3.8 0 1.1l-1.8 1.5h10.9c.4 0 .8.3.8.8s-.3.8-.8.8h-10.9l1.7 1.7c.3.3.3.8 0 1.1-.1.1-.3.2-.5.2z"/></svg>