<svg width="351" height="63" viewBox="0 0 351 63" fill="none" xmlns="http://www.w3.org/2000/svg">
<path d="M17.7502 47.434C14.5675 47.434 11.7155 46.9173 9.19421 45.884C6.67287 44.8506 4.64754 43.3213 3.11821 41.296C1.63021 39.2706 0.844874 36.832 0.762207 33.98H12.0462C12.2115 35.592 12.7695 36.832 13.7202 37.7C14.6709 38.5266 15.9109 38.94 17.4402 38.94C19.0109 38.94 20.2509 38.5886 21.1602 37.886C22.0695 37.142 22.5242 36.1293 22.5242 34.848C22.5242 33.7733 22.1522 32.8846 21.4082 32.182C20.7055 31.4793 19.8169 30.9006 18.7422 30.446C17.7089 29.9913 16.2209 29.4746 14.2782 28.896C11.4675 28.028 9.17354 27.16 7.39621 26.292C5.61887 25.424 4.08954 24.1426 2.80821 22.448C1.52687 20.7533 0.886207 18.542 0.886207 15.814C0.886207 11.7633 2.35354 8.60131 5.28821 6.32798C8.22287 4.01331 12.0462 2.85598 16.7582 2.85598C21.5529 2.85598 25.4175 4.01331 28.3522 6.32798C31.2869 8.60131 32.8575 11.784 33.0642 15.876H21.5942C21.5115 14.4706 20.9949 13.3753 20.0442 12.59C19.0935 11.7633 17.8742 11.35 16.3862 11.35C15.1049 11.35 14.0715 11.7013 13.2862 12.404C12.5009 13.0653 12.1082 14.0366 12.1082 15.318C12.1082 16.7233 12.7695 17.8186 14.0922 18.604C15.4149 19.3893 17.4815 20.2366 20.2922 21.146C23.1029 22.0966 25.3762 23.006 27.1122 23.874C28.8895 24.742 30.4189 26.0026 31.7002 27.656C32.9815 29.3093 33.6222 31.438 33.6222 34.042C33.6222 36.522 32.9815 38.7746 31.7002 40.8C30.4602 42.8253 28.6415 44.4373 26.2442 45.636C23.8469 46.8346 21.0155 47.434 17.7502 47.434Z" fill="#4684F7"/>
<path d="M84.2907 12.032C88.5894 12.032 91.9994 13.334 94.5207 15.938C97.0834 18.542 98.3647 22.1586 98.3647 26.788V47H87.8247V28.214C87.8247 25.982 87.2254 24.2666 86.0267 23.068C84.8694 21.828 83.2574 21.208 81.1907 21.208C79.1241 21.208 77.4914 21.828 76.2927 23.068C75.1354 24.2666 74.5567 25.982 74.5567 28.214V47H64.0167V28.214C64.0167 25.982 63.4174 24.2666 62.2187 23.068C61.0614 21.828 59.4494 21.208 57.3827 21.208C55.3161 21.208 53.6834 21.828 52.4847 23.068C51.3274 24.2666 50.7487 25.982 50.7487 28.214V47H40.1467V12.404H50.7487V16.744C51.8234 15.2973 53.2287 14.1606 54.9647 13.334C56.7007 12.466 58.6641 12.032 60.8547 12.032C63.4587 12.032 65.7734 12.59 67.7987 13.706C69.8654 14.822 71.4774 16.4133 72.6347 18.48C73.8334 16.5786 75.4661 15.0286 77.5327 13.83C79.5994 12.6313 81.8521 12.032 84.2907 12.032Z" fill="#4684F7"/>
<path d="M103.672 29.64C103.672 26.0853 104.333 22.9646 105.656 20.278C107.02 17.5913 108.859 15.5246 111.174 14.078C113.488 12.6313 116.072 11.908 118.924 11.908C121.362 11.908 123.491 12.404 125.31 13.396C127.17 14.388 128.596 15.69 129.588 17.302V12.404H140.19V47H129.588V42.102C128.554 43.714 127.108 45.016 125.248 46.008C123.429 47 121.3 47.496 118.862 47.496C116.051 47.496 113.488 46.7726 111.174 45.326C108.859 43.838 107.02 41.7506 105.656 39.064C104.333 36.336 103.672 33.1946 103.672 29.64ZM129.588 29.702C129.588 27.0566 128.844 24.9693 127.356 23.44C125.909 21.9106 124.132 21.146 122.024 21.146C119.916 21.146 118.118 21.9106 116.63 23.44C115.183 24.928 114.46 26.9946 114.46 29.64C114.46 32.2853 115.183 34.3933 116.63 35.964C118.118 37.4933 119.916 38.258 122.024 38.258C124.132 38.258 125.909 37.4933 127.356 35.964C128.844 34.4346 129.588 32.3473 129.588 29.702Z" fill="#4684F7"/>
<path d="M158.462 18.17C159.702 16.2686 161.252 14.7806 163.112 13.706C164.972 12.59 167.038 12.032 169.312 12.032V23.254H166.398C163.752 23.254 161.768 23.8326 160.446 24.99C159.123 26.106 158.462 28.09 158.462 30.942V47H147.86V12.404H158.462V18.17Z" fill="#4684F7"/>
<path d="M193.661 38.01V47H188.267C184.423 47 181.426 46.07 179.277 44.21C177.128 42.3086 176.053 39.2293 176.053 34.972V21.208H171.837V12.404H176.053V3.97198H186.655V12.404H193.599V21.208H186.655V35.096C186.655 36.1293 186.903 36.8733 187.399 37.328C187.895 37.7826 188.722 38.01 189.879 38.01H193.661Z" fill="#4684F7"/>
<path d="M204.961 20.588C206.035 18.3146 207.73 16.434 210.045 14.946C212.401 13.4166 215.191 12.652 218.415 12.652C221.473 12.652 224.222 13.3753 226.661 14.822C229.141 16.2273 231.063 18.2526 232.427 20.898C233.832 23.502 234.535 26.54 234.535 30.012C234.535 33.484 233.832 36.5426 232.427 39.188C231.063 41.8333 229.141 43.8793 226.661 45.326C224.222 46.7726 221.473 47.496 218.415 47.496C215.232 47.496 212.463 46.752 210.107 45.264C207.751 43.7346 206.035 41.8333 204.961 39.56V62.996H200.683V13.148H204.961V20.588ZM230.133 30.012C230.133 27.2013 229.575 24.7833 228.459 22.758C227.384 20.6913 225.896 19.1206 223.995 18.046C222.093 16.9713 219.944 16.434 217.547 16.434C215.232 16.434 213.103 16.992 211.161 18.108C209.259 19.224 207.751 20.8153 206.635 22.882C205.519 24.9486 204.961 27.346 204.961 30.074C204.961 32.802 205.519 35.1993 206.635 37.266C207.751 39.3326 209.259 40.924 211.161 42.04C213.103 43.156 215.232 43.714 217.547 43.714C219.944 43.714 222.093 43.1766 223.995 42.102C225.896 40.986 227.384 39.3946 228.459 37.328C229.575 35.22 230.133 32.7813 230.133 30.012Z" fill="black"/>
<path d="M257.339 47.496C254.156 47.496 251.283 46.7933 248.721 45.388C246.199 43.9413 244.195 41.916 242.707 39.312C241.26 36.6666 240.537 33.5873 240.537 30.074C240.537 26.5606 241.281 23.502 242.769 20.898C244.257 18.2526 246.282 16.2273 248.845 14.822C251.407 13.3753 254.28 12.652 257.463 12.652C260.645 12.652 263.518 13.3753 266.081 14.822C268.685 16.2273 270.71 18.2526 272.157 20.898C273.645 23.502 274.389 26.5606 274.389 30.074C274.389 33.546 273.645 36.6046 272.157 39.25C270.669 41.8953 268.623 43.9413 266.019 45.388C263.415 46.7933 260.521 47.496 257.339 47.496ZM257.339 43.714C259.571 43.714 261.637 43.218 263.539 42.226C265.44 41.1926 266.969 39.6633 268.127 37.638C269.325 35.5713 269.925 33.05 269.925 30.074C269.925 27.098 269.346 24.5973 268.189 22.572C267.031 20.5053 265.502 18.976 263.601 17.984C261.699 16.9506 259.633 16.434 257.401 16.434C255.169 16.434 253.102 16.9506 251.201 17.984C249.299 18.976 247.77 20.5053 246.613 22.572C245.497 24.5973 244.939 27.098 244.939 30.074C244.939 33.05 245.497 35.5713 246.613 37.638C247.77 39.6633 249.279 41.1926 251.139 42.226C253.04 43.218 255.107 43.714 257.339 43.714Z" fill="black"/>
<path d="M284.47 6.76198C283.602 6.76198 282.858 6.45198 282.238 5.83198C281.618 5.21198 281.308 4.44731 281.308 3.53798C281.308 2.62864 281.618 1.88464 282.238 1.30598C282.858 0.685976 283.602 0.375977 284.47 0.375977C285.338 0.375977 286.082 0.685976 286.702 1.30598C287.322 1.88464 287.632 2.62864 287.632 3.53798C287.632 4.44731 287.322 5.21198 286.702 5.83198C286.082 6.45198 285.338 6.76198 284.47 6.76198ZM286.64 13.148V47H282.3V13.148H286.64Z" fill="black"/>
<path d="M312.34 12.528C316.39 12.528 319.697 13.7886 322.26 16.31C324.822 18.79 326.104 22.4066 326.104 27.16V47H321.826V27.656C321.826 23.9773 320.896 21.1666 319.036 19.224C317.217 17.2813 314.716 16.31 311.534 16.31C308.268 16.31 305.664 17.3433 303.722 19.41C301.779 21.4766 300.808 24.5146 300.808 28.524V47H296.468V13.148H300.808V18.914C301.882 16.8473 303.432 15.2766 305.458 14.202C307.483 13.086 309.777 12.528 312.34 12.528Z" fill="black"/>
<path d="M341.344 16.806V37.824C341.344 39.8906 341.737 41.3166 342.522 42.102C343.308 42.8873 344.692 43.28 346.676 43.28H350.644V47H345.994C342.936 47 340.662 46.2973 339.174 44.892C337.686 43.4453 336.942 41.0893 336.942 37.824V16.806H332.23V13.148H336.942V4.65398H341.344V13.148H350.644V16.806H341.344Z" fill="black"/>
</svg>
