<svg enable-background="new 0 0 18 18" viewBox="0 0 18 18" xmlns="http://www.w3.org/2000/svg"><path d="m17 17.9c-.2 0-.5-.1-.6-.3l-4-4c-1.3 1.1-3 1.6-4.7 1.6-2 0-3.9-.8-5.4-2.2-1.4-1.4-2.2-3.3-2.2-5.4 0-2 .8-3.9 2.2-5.4 1.4-1.4 3.3-2.2 5.4-2.2 2 0 3.9.8 5.4 2.2 1.4 1.4 2.2 3.3 2.2 5.4 0 1.7-.6 3.4-1.6 4.7l4 4c.3.3.3.9 0 1.3-.2.2-.5.3-.7.3zm-9.3-16c-1.5 0-3 .6-4.1 1.7s-1.7 2.5-1.7 4.1c0 1.5.6 3 1.7 4.1s2.5 1.7 4.1 1.7c1.5 0 3-.6 4.1-1.7s1.7-2.5 1.7-4.1c0-1.5-.6-3-1.7-4.1s-2.6-1.7-4.1-1.7z" fill="#bdbdbd"/></svg>