<svg enable-background="new 0 0 19 20" viewBox="0 0 19 20" xmlns="http://www.w3.org/2000/svg"><path d="m10.8 19.8h-2.6c-.9 0-1.7-.7-1.8-1.6l-.2-1.3c0-.1-.1-.3-.3-.3l-.2-.1c-.1-.1-.3-.1-.4-.1l-1.3.4c-.4.2-.9.2-1.3 0s-.8-.4-1-.8l-1.3-2.2c-.2-.4-.3-.8-.2-1.3.1-.4.3-.8.7-1.1l1-.8c0-.1.1-.3.1-.5v-.2c0-.2-.1-.3-.2-.4l-1-.8c-.3-.3-.5-.7-.6-1.2-.1-.4 0-.9.2-1.3l1.3-2.2c.2-.4.6-.7 1-.8.4-.2.9-.2 1.3 0l1.2.5c.1 0 .3 0 .4-.1.1 0 .2-.1.2-.1.2-.1.3-.3.3-.4l.2-1.3c.2-.9.9-1.6 1.8-1.6h2.6c.9 0 1.7.7 1.8 1.6l.2 1.3c0 .1.1.3.3.3.1 0 .2.1.2.1.1.1.3.1.4.1l1.4-.4c.4-.2.9-.2 1.3 0s.8.4 1 .8l1.3 2.2c.2.4.3.8.2 1.3-.1.4-.3.8-.7 1.1l-1 .8c0 .1-.1.3-.1.5v.3c0 .2.1.3.2.4l1 .8c.7.6.9 1.6.4 2.4l-1.3 2.2c-.2.4-.6.7-1 .8s-.9.1-1.3 0l-1.2-.5c-.1 0-.3 0-.4.1l-.2.1c-.2.1-.3.2-.3.3l-.2 1.3c-.2 1-1 1.7-1.9 1.7zm-5.5-5c.4 0 .7.1 1.1.3l.2.1c.6.3.9.8 1 1.4l.2 1.3c0 .2.2.3.4.3h2.6c.2 0 .3-.1.4-.3l.2-1.3c.1-.6.5-1.1 1-1.4l.2-.1c.5-.3 1.2-.4 1.7-.2l1.2.5h.3c.1 0 .2-.1.2-.2l1.3-2.2c.1-.2.1-.4-.1-.5l-1-.8c-.5-.4-.7-1-.7-1.6v-.2c0-.6.2-1.2.7-1.6l1-.8c.1-.1.1-.1.1-.2s0-.2 0-.3l-1.3-2.2c0-.1-.1-.1-.2-.2-.1 0-.2 0-.3 0l-1.2.4c-.6.2-1.2.1-1.7-.2-.1 0-.1-.1-.2-.1-.6-.3-.9-.8-1-1.4l-.2-1.3c0-.2-.2-.3-.4-.3h-2.6c-.2.1-.3.2-.4.4l-.2 1.2c-.1.6-.5 1.1-1 1.4l-.2.2c-.5.3-1.2.4-1.7.1l-1.2-.4c-.1 0-.2 0-.3 0s-.2.1-.2.2l-1.3 2.2c0 .1-.1.2 0 .3 0 .1.1.2.1.2l1 .8c.5.4.7 1 .7 1.6v.2c0 .6-.2 1.2-.7 1.6l-1 .8c-.1.1-.1.1-.1.2v.3l1.3 2.2c0 .1.1.1.2.2h.3l1.2-.4c.2-.1.4-.2.6-.2z"/><path clip-rule="evenodd" d="m9.5 7.7c-.6 0-1.2.3-1.6.7s-.7 1-.7 1.6.2 1.2.7 1.6c.4.4 1 .7 1.6.7s1.2-.2 1.6-.7c.4-.4.7-1 .7-1.6s-.2-1.2-.7-1.6-1-.7-1.6-.7zm-2.7-.4c.7-.7 1.7-1.1 2.7-1.1s1.9.4 2.7 1.1c.7.7 1.1 1.7 1.1 2.7s-.4 1.9-1.1 2.7c-.7.7-1.7 1.1-2.7 1.1s-1.9-.4-2.7-1.1c-.7-.8-1.1-1.7-1.1-2.7s.4-1.9 1.1-2.7z"/></svg>