<svg enable-background="new 0 0 22 20" viewBox="0 0 22 20" xmlns="http://www.w3.org/2000/svg"><path d="m20.6 19.8h-19.2c-.4 0-.7-.3-.7-.8s.3-.8.7-.8h.6v-10.5c-.3-.2-.6-.5-.9-.9-.3-.5-.5-1-.6-1.6s0-1.2.2-1.7.5-1 .9-1.4l1.2-1.2c.4-.4 1-.7 1.6-.7h13.2c.6 0 1.2.2 1.6.7l1.2 1.2c.4.4.7.9.9 1.4s.2 1.1.2 1.7c-.1.6-.3 1.1-.6 1.6-.2.4-.5.7-.9.9v10.5h.6c.4 0 .8.3.8.8s-.3.8-.8.8zm-2.9-1.6h.8v-9.8c-.4.1-.9.1-1.4 0-.6-.1-1.2-.3-1.6-.7-1.1.8-2.6 1-3.8.4-.3-.1-.5-.3-.7-.4-.6.5-1.4.7-2.3.8-.5 0-1.1-.1-1.5-.3-.2-.1-.5-.3-.7-.4-.5.3-1 .6-1.6.7-.5.1-.9.1-1.4 0v9.8h8.3v-6.8c0-.4.2-.8.4-1.1.3-.3.7-.4 1.1-.4h3c.4 0 .8.2 1.1.4.3.3.4.7.4 1.1v6.7zm-4.5 0h3v-6.8h-3zm-10-11.5c.4.3.9.4 1.4.3s1-.3 1.3-.7c.2-.2.4-.3.6-.3.2 0 .4.1.6.3s.5.4.8.6c.2 0 .5.1.8.1.6 0 1.3-.3 1.7-.8.2-.1.4-.2.6-.2.2 0 .4.1.6.3s.5.4.8.6c.9.4 2 .2 2.6-.6.1-.2.3-.3.5-.3.2 0 .4.1.6.3.3.4.8.6 1.3.7s1 0 1.5-.3c.3-.2.5-.4.7-.7s.3-.6.4-1c0-.3 0-.7-.1-1s-.3-.6-.5-.9l-1.3-1.1c-.1-.1-.3-.2-.5-.2h-13.2c-.2 0-.4 0-.6.2l-1.1 1.2c-.3.2-.5.5-.6.8-.1.4-.1.7-.1 1s.2.7.4 1 .4.5.8.7c-.1 0-.1 0 0 0zm6.3 10h-3.8c-.8 0-1.5-.7-1.5-1.5v-3.8c0-.4.2-.8.4-1.1.4-.1.7-.3 1.1-.3h3.8c.4 0 .8.2 1.1.4.3.3.4.7.4 1.1v3.7c0 .4-.2.8-.4 1.1-.3.3-.7.4-1.1.4zm-3.8-1.5h3.8v-3.7h-3.8z"/></svg>